<mxfile host="app.diagrams.net" modified="2022-04-16T09:28:38.382Z" agent="5.0 (Macintosh; Intel Mac OS X 10_15_7) AppleWebKit/537.36 (KHTML, like Gecko) Chrome/99.0.4844.74 Safari/537.36" etag="1abeIofhTjsRtOXL89FH" version="17.2.0" type="github">
  <diagram id="rANYUBHNyGS6VFtmLda6" name="矣">
    <mxGraphModel dx="1095" dy="574" grid="1" gridSize="10" guides="1" tooltips="1" connect="1" arrows="1" fold="1" page="1" pageScale="1" pageWidth="827" pageHeight="1169" math="0" shadow="0">
      <root>
        <mxCell id="0" />
        <mxCell id="1" parent="0" />
        <mxCell id="rAIf4p364bo-RodgEZzl-18" value="" style="edgeStyle=orthogonalEdgeStyle;rounded=0;orthogonalLoop=1;jettySize=auto;html=1;entryX=0.5;entryY=0;entryDx=0;entryDy=0;" edge="1" parent="1" source="rAIf4p364bo-RodgEZzl-2" target="rAIf4p364bo-RodgEZzl-26">
          <mxGeometry relative="1" as="geometry">
            <mxPoint x="99.99999999999977" y="452" as="targetPoint" />
          </mxGeometry>
        </mxCell>
        <mxCell id="rAIf4p364bo-RodgEZzl-39" style="edgeStyle=orthogonalEdgeStyle;rounded=0;orthogonalLoop=1;jettySize=auto;html=1;entryX=0.5;entryY=1;entryDx=0;entryDy=0;" edge="1" parent="1" source="rAIf4p364bo-RodgEZzl-2" target="rAIf4p364bo-RodgEZzl-25">
          <mxGeometry relative="1" as="geometry" />
        </mxCell>
        <mxCell id="rAIf4p364bo-RodgEZzl-40" style="edgeStyle=orthogonalEdgeStyle;rounded=0;orthogonalLoop=1;jettySize=auto;html=1;entryX=0;entryY=0.5;entryDx=0;entryDy=0;" edge="1" parent="1" source="rAIf4p364bo-RodgEZzl-2" target="rAIf4p364bo-RodgEZzl-3">
          <mxGeometry relative="1" as="geometry" />
        </mxCell>
        <mxCell id="rAIf4p364bo-RodgEZzl-43" style="edgeStyle=orthogonalEdgeStyle;rounded=0;orthogonalLoop=1;jettySize=auto;html=1;entryX=0;entryY=0.5;entryDx=0;entryDy=0;" edge="1" parent="1" source="rAIf4p364bo-RodgEZzl-2" target="rAIf4p364bo-RodgEZzl-4">
          <mxGeometry relative="1" as="geometry" />
        </mxCell>
        <mxCell id="rAIf4p364bo-RodgEZzl-2" value="金文" style="shape=image;imageAspect=0;aspect=fixed;verticalLabelPosition=bottom;verticalAlign=top;image=data:image/svg+xml,PHN2ZyB2ZXJzaW9uPSIxLjAiIHhtbG5zPSJodHRwOi8vd3d3LnczLm9yZy8yMDAwL3N2ZyIKIHdpZHRoPSI5OS4wMDAwMDBwdCIgaGVpZ2h0PSIyNDMuMDAwMDAwcHQiIHZpZXdCb3g9IjAgMCA5OS4wMDAwMDAgMjQzLjAwMDAwMCIKIHByZXNlcnZlQXNwZWN0UmF0aW89InhNaWRZTWlkIG1lZXQiPgo8bWV0YWRhdGE+CkNyZWF0ZWQgYnkgcG90cmFjZSAxLjE1LCB3cml0dGVuIGJ5IFBldGVyIFNlbGluZ2VyIDIwMDEtMjAxNwo8L21ldGFkYXRhPgo8ZyB0cmFuc2Zvcm09InRyYW5zbGF0ZSgwLjAwMDAwMCwyNDMuMDAwMDAwKSBzY2FsZSgwLjEwMDAwMCwtMC4xMDAwMDApIgpmaWxsPSIjMDAwMDAwIiBzdHJva2U9Im5vbmUiPgo8cGF0aCBkPSJNMTQ3IDIzMjUgYzQgLTExIDE5IC00MCAzMyAtNjUgNTIgLTg5IDEwNyAtMjQ0IDExMSAtMzEwIDUgLTg4IC0xCi0xMTYgLTMzIC0xNjUgLTE4IC0yNyAtNDEgLTYwIC01MCAtNzQgLTkgLTE0IC0xNyAtNDcgLTE3IC03MiAtMSAtNTMgMTYgLTczCjk0IC0xMDkgNDMgLTIwIDY3IC0yMyAxNzAgLTI0IDEyNiAwIDE2NyAxMCAyMzUgNjQgMjUgMjAgMjUgMjAgLTEgMjAgLTE0IDAKLTQ0IC05IC02NyAtMjAgLTY4IC0zMyAtMTgwIC00NiAtMjY5IC0zMSAtOTEgMTUgLTExOCAzMSAtMTMzIDc2IC0xMyAzOCAtNQo1NyA0NyAxMTcgMTggMjEgMzkgNTQgNDggNzQgMTcgNDEgMjAgMTIxIDYgMTU2IC01IDEzIC0xOSA1NSAtMzEgOTMgLTI1IDgxCi05MiAyMjAgLTEyNiAyNjIgLTE3IDIwIC0yMiAyMyAtMTcgOHoiLz4KPHBhdGggZD0iTTUwNSAxNjc5IGMtMjcgLTUgLTgxIC0xNSAtMTIwIC0yMSAtMzggLTYgLTc3IC0xNSAtODUgLTE5IC0yMiAtMTIKNzMgLTExIDEwNSAxIDE0IDYgOTYgMTEgMTgwIDEzIDE4OCAzIDE5MCAyIDE4NyAtOTkgLTEgLTM3IC03IC05NSAtMTIgLTEyOAotMTMgLTc5IC0xMyAtMTM1IDEgLTE5MyAxMiAtNTIgNDYgLTEzMCA2NiAtMTUxIDcgLTcgMTMgLTE3IDEzIC0yMiAwIC0xMiA1MgotNjUgNzggLTc5IDI4IC0xNSA0NSAtNCAxOCAxMSAtNTMgMzAgLTEzMyAxNTEgLTE1MiAyMzAgLTEzIDU1IC0xMSAxMzcgNiAyMjMKMzEgMTYwIDE4IDIxNCAtNTcgMjM0IC00NSAxMyAtMTU3IDEyIC0yMjggMHoiLz4KPHBhdGggZD0iTTQwOCAxMzc1IGMtNSAtMTk5IC01IC0xOTggLTI0IC0yMTIgLTEwIC03IC0yNyAtMTMgLTM5IC0xMyAtMTIgMAotNDggLTggLTgxIC0xOSAtMzIgLTEwIC03MSAtMjEgLTg1IC0yNSAtMTQgLTMgLTM4IC0xNSAtNTIgLTI3IC00NiAtMzUgLTEwCi01NCA0NyAtMjQgMTUgOCAzNyAxNSA0NyAxNSAxMCAwIDIwIDQgMjMgOCAzIDQgMjggMTQgNTYgMjIgMjggOCA1MyAxOCA1NiAyMgozIDQgMTQgOCAyNSA4IDE4IDAgMTkgLTggMTkgLTExMCAwIC03OCAtNSAtMTIxIC0xNiAtMTUxIC0xNiAtMzggLTE2IC00MyAwCi03NiAyNSAtNTIgMzAgLTExNSAxNiAtMTg2IC0xMiAtNjIgLTE1IC03MyAtNDMgLTEzNyAtOSAtMTkgLTIwIC00NiAtMjYgLTYwCi0xOCAtNDIgLTEwNyAtMTc3IC0xMzggLTIwOCAtNiAtNyAtMjkgLTM0IC01MCAtNjAgLTIxIC0yNiAtNDIgLTUwIC00OCAtNTQKLTUgLTQgLTYgLTEwIC0zIC0xNCA4IC03IDQ4IDMzIDEwNyAxMDYgMjAgMjUgNDYgNTYgNTkgNzAgMjIgMjQgOTIgMTM1IDkyCjE0NiAwIDMgOCAxOCAxOSAzMiAxMCAxNSAyMSA0MSAyNSA1NyA4IDMwIDggMzAgMzIgMCAxMyAtMTYgMjQgLTM0IDI0IC0zOCAwCi00IDQgLTEzIDEwIC0yMCA1IC03IDM3IC00NyA2OSAtODkgNTYgLTcxIDE4OSAtMTk2IDIzNiAtMjIwIDExIC02IC01IDE2IC0zNQo0OCAtMzAgMzIgLTc4IDgzIC0xMDUgMTEzIC0yOCAzMCAtNTkgNjMgLTcwIDc1IC0xMSAxMiAtMzEgMzcgLTQ1IDU2IC0xMyAxOQotMjcgMzcgLTMwIDQwIC0xMCA5IC0yOSA1NSAtMzkgOTUgLTIxIDc5IC03IDI0NSAxOSAyNDUgMTMgMCAxMyA2MyAwIDc2IC02IDYKLTEzIDYxIC0xNyAxMjQgLTcgMTI5IC0xNSAxMjEgODUgODEgNzMgLTI5IDE1NiAtNjEgMTU5IC02MSAxMSAwIC0xIDE5IC0xNAoyMyAtMTAgNCAtNDAgMjAgLTY4IDM3IC03OCA0OCAtMTQzIDgwIC0xNjAgODAgLTEzIDAgLTE1IDIxIC0xNSAxMzggMCAxNTEKLTE4IDIyNCAtMjIgODd6Ii8+CjwvZz4KPC9zdmc+Cg==;" vertex="1" parent="1">
          <mxGeometry x="79" y="286.9" width="42" height="103.1" as="geometry" />
        </mxCell>
        <mxCell id="rAIf4p364bo-RodgEZzl-44" style="edgeStyle=orthogonalEdgeStyle;rounded=0;orthogonalLoop=1;jettySize=auto;html=1;entryX=0;entryY=0.5;entryDx=0;entryDy=0;" edge="1" parent="1" source="rAIf4p364bo-RodgEZzl-3" target="rAIf4p364bo-RodgEZzl-7">
          <mxGeometry relative="1" as="geometry" />
        </mxCell>
        <mxCell id="rAIf4p364bo-RodgEZzl-3" value="楚系简帛文字" style="shape=image;imageAspect=0;aspect=fixed;verticalLabelPosition=bottom;verticalAlign=top;image=data:image/gif,iVBORw0KGgoAAAANSUhEUgAAAIoAAACHCAYAAADJGcG6AAAAAXNSR0IArs4c6QAAAARnQU1BAACxjwv8YQUAAAAJcEhZcwAADsMAAA7DAcdvqGQAAAhKSURBVHhe7Z2NkeQ0EIUvABIgARIgASIgAjIgA1IgBWIgCbIgGfA3RW+pRFtq2ZJs2e+renW3M7Oy13ruH8l7900IIUSB7zf9vemvTb/997UQ/+PPTf8kwjS/bBLiix82pSZJzaLIIr4g1XhGQb9uEuJDySi8J8SHPzZ5JkEyiviCTsczCfpxkxAfKFo9k/C6EB9s/cQzCpFGiA+/b/JMgtTxiA8/b/IMgrSGIj6wyLaXcpDSjvhQ6nSQlu9Fcd0E3aXbIerRnvOnmExpFdZ09SIbRs7TIl8j3vtpkxhIqXg1XRFNiBhmjtwge9KK8SBqxasJM82COqhWK5WkOmoAkQlhTWUGRINo5CiJMbTF0JFa8YpmtMNEqx4GSaU2vhOR4pXJG91ZkCa8Y/eQUtBJIsUrGn2hR5oEKaqcIFq8kpZGQg3RO93kYnxtNxwkUrzOuBMj59FD2sA8QKR4RaMXrqLnQUTAUHRdpCmiIeLvtr7ifV8qpZ9GIsUrGr1gFV3ci7S3pUchTIwlgqSTwx22dyfyOzyjiaScqFmJLt735xrduT2CvHjdMwmvjy78oi15C3s/TyrtAQWIFo0zluhrk8r7rZOa/yajp9HpdHmiRePoVhhq9QQmObLsHolSMkqByAVETNB3m0ZSelAbEfWO1hFEIG/MVDLKDpGLZ5qRckrp4WwBTRTyxk0lo+wQydtoRsoptcNEmbMFdKTzkVEcotFkRsph/FLK6bVqWjoGklEcogXsjJRTOpee0axmFO0iZ9SKRtOMhTWihXds1DOaRX5mPcSUEV3SHr1SWdsZ7hnNasUs5zF6IXE5ancWGl3A1kzSO5rVajLORSREitjRd1fNJLzXO5rV1ou0e5wRKWJH1iY1k6ARRWVti2J0BF2O2iQhos4IIiYZNWFXmHNZomlnBBGTjPp1j0h9okI2IdLtjJisSE0y8o6urUCrPsmIPErQu4ismYRz4jOjiKyfjIpky1K7YLzfk5pJZhSQkeJ99HrRUkTqk54huGQSjjOqYE6J/MzqdjJq6wio16bYnkl4bebGWy3Vcj4qYjMijxT0mMQ9k3D8mZMSSTkzTbsMkUL27IUj1+cm4bgzdqBTShuNpp5p9lHMMApQFzAOmlGH5NBmez9bKkWSAhGjrN4mRkwycnviEUSMsmo45pmVSE1CWhz9tN7yRIzChVwN0ptXPHu6IhUuR+SOQytdzMiWhEl1SRAulHcBc62wAEV3FYmQJi2qNcD6hncRc909j2P4aKpBq9ZdlxK9wFzcu61Ycj4tUQTx83KDiEYiq7MmLvLshTIPaibOuyWKmPSvKB0kss6Qa/bSO3A8Jrk1gqRSXXKSI3cm38OFH9kRkSKoPzDHkXM02bmKk7S0lJ6YCMY4YxpMQXTrYYxUV0S/R8Md513oVjHBiMlmTCY+F6/zvhmilylSYRAtpg2il1mulAwyiVXNQnQa+TC2cFjFLKQsIogMciHcod7kXC3OizpHDz/fCO5Wb7KuEpFO3BQKQyZoRGfSIkwrFoFwz+ook2btrXUZeV1jba997qzRSDfiIWAYJnRv042iE2MdNY32aV6ImcYzRElELj26+DKObh0QkRRdXgJpyjNBi6h9tIbyYNikO1vcpmIs0him0QbggyASeBPeQ5gGUctgHC3MLcpIk+wJ43BczGM72CYiEX9iKro1RaSLYRKuMEmrLCKZuSi4MRLFMz/DXusvOsBztlx4b2JWVG4mi1biBGefnjNxV9sdTcfEuHcyH+ciDkDO7zWRpbuV45xJaXlkOCMVzkFsH6j3nU40qeHtQ6WyotWkeuMCuPBnzMFE2p3tva/8vzhnDYJSE9Cakkryz3AMsSBn6wITRvPwzMcxxSL0MghGKP1qqmcUjituTO9WlFRTe0xg71h7EUhchD2x1ssciK6DcWvQvXjfbyKyRMYRgyCt9G5tGStqEIMW1xsrl6LLJOgwmBRrTb3JOCLGIhodLT5baiC1zYOwRale5mAMixqMe3ZlkgLXO05JKnI703Kn5jJDMAZ3MWG/96omBW5u3vzrPWFU0YnoRUdmCgwxq3D0jEz6wpCRjUUVuJ0oGYX3LH3M3v+gVvJMwjml1IpcFbedwAhMSJo+uGOv3vHkXJjo3MicZ07J7DLKw2HyLaKlE99qFKWeB0Oa8yYdtRiF18WDKRnFm/w9oxxdsxELUUonFLCG1TK5ZJKXQBHqGcCEkfbMRNssXgT1iGeEkrwaRjwcb1W2JD57dVsvLoLCNmoWRZOXg1kiaUhGEcWW2UTkES8nYhSkldiXEzUK6Uf/RNeLiRoFkYKu/o+mOF+kfy5jMrXHCTyxoTgrFdGWs0hIREu7NNVNk6mt1JbE5PV4JDOFsdgmYAuh1L7LKJPZ29NpFRNHpLHnbixF7ImIxGeRPbtTMkYqPsf3iYkwQd5k3FWYSvXJZLjg0bv4as2si0RGr7QzSpiYc5RBLoQ6wpucO8iKZHEhpJs7RBKiRZr2+DvPu2iX+gbUWs5U3NGopRuJiLE4DwNjyBw3oqW78R53pKWlJT1iHD5PMcq46lhuTOQ3/0zR9QkKTMb1jMPXvM5YihaLwISmk1hSmhJaIEoQLTCGOpQFIV1E08RRk4jF4c6OmoQ0IV4GKYDC0TOEJ5nkRRA9WlpfE5/Xw0gP5kyrauL7GEcsDpNohkhNcdQYqRhLbetNIKTbJO/J1iFMZoQeZvDEuBxX3AwKy1GT3iLOgRpGq6I3pmUto7dkkMWgHqBlnWUYGWRxbKn7qGmoY7zXTbyv5zgeCJGGiU0311ID2dfpY4D8mRbDvMcY6mJeiLXGSh1CCPEgvn37F4N1I8wZJkYeAAAAAElFTkSuQmCC;" vertex="1" parent="1">
          <mxGeometry x="262" y="190" width="81.85" height="80" as="geometry" />
        </mxCell>
        <mxCell id="rAIf4p364bo-RodgEZzl-5" value="&lt;font style=&quot;font-size: 60px&quot;&gt;矣&lt;/font&gt;" style="rounded=1;whiteSpace=wrap;html=1;" vertex="1" parent="1">
          <mxGeometry x="592" y="306" width="60" height="60" as="geometry" />
        </mxCell>
        <mxCell id="rAIf4p364bo-RodgEZzl-12" style="edgeStyle=orthogonalEdgeStyle;rounded=0;orthogonalLoop=1;jettySize=auto;html=1;entryX=0;entryY=0.5;entryDx=0;entryDy=0;" edge="1" parent="1" source="rAIf4p364bo-RodgEZzl-7" target="rAIf4p364bo-RodgEZzl-5">
          <mxGeometry relative="1" as="geometry" />
        </mxCell>
        <mxCell id="rAIf4p364bo-RodgEZzl-7" value="隶书" style="shape=image;imageAspect=0;aspect=fixed;verticalLabelPosition=bottom;verticalAlign=top;image=data:image/png,iVBORw0KGgoAAAANSUhEUgAAAG4AAABuCAYAAADGWyb7AAAACXBIWXMAAC4jAAAuIwF4pT92AAAHwklEQVR4nO2dL4j6bhzHDcIvCBcWBINwQTAsCAbBYBAMBwaDYBAuGIQLwoJBMAgGYWFBMAiGhQODYDAIBmFhQTAIBsGwICwIhoXBgmB4/8KX+3J3X93m32dzT3i1nX7u89rmns/zPJ/5APgo7oN4ABQqzlMQD4BCxXkK4gFQqDhPQTwAChXnKYgHQKHiPAXxAChUnKcgHgCFivMUxAOgUHGegngAFCrOUxAPgELFeQriAdwTXddRrVbBsiyy2SzG4zFIx0TF2ZAWi8Xg8/l+UC6XIUkS9vu9qyUSD+BecBz3j7TfJBIJCIIATdNcJ5F4APdA0zRLad/x+/1oNpuukkc8gHvQ6XTOEvdFPB7HbDZzhUDiAdwaXdcRCoUuEvdFr9dzvDziAdyaQqFgKuW///6zJU8QBEfLIx7ALWk2m6Yyut0uDMPAbrdDq9VytTziAdwKWZZNJUwmk38kLBYLJJNJ079rt9uOlEc8gFugaRoikcjJ5E+nU9Pk5/N518kjHsAtSKVSF0uz8xk+nw/D4dBR8ogHcC3pdPpksiVJsp1sq1ut3++HoiiOkUc8gEsxDANmV4ksy2cnOZvNmsorl8tU3DVsNpujdchLrrTv1Ot1U3GBQMAxNU7iAZxLt9tFIBC4uTQAvnK5bDlE0HWdijsHURSRSCRMk2r3QeQYkiRZSstms46Q5gpxPM/bKmHxPH9xUtvtNvx+v+nnB4NBrNdrKs4OmUzGUtgXoiielVTDMNDpdBCNRi0/OxwOY7lcOkaao8XxPG9bms/nQyQSQbPZxGKxOJpgwzAwnU7RaDSQyWRs1ywLhYIj5+uIB3AKO1eC2dNfNBoFy7KIxWJ4fX09+zMYhkG/33ecMMeLs/rNuSccx2G32zlWmqPFxeNxIsKcVB1xpbh+v3/1hKhdqtUqNpuNK4Q5XhwA336/x3A4RLvdRq1Ww8fHB9LptOkA/BySyaTjnhafQpwZiqJgsVhgsVhgPp9jNBqh0WhYDtK/P8CoqupKaa4WZ8ZsNoPVGLBUKrlW2tOKA/4sGjIbUrhtOZ5nxAHm1f5rSmROgHgA96TX61FxbkQURSrOjZiJo79xDqbRaJwUl8/nqTgnst/vYVU243nesiapaRokSUK1WkUymQTDMAgEAkd5eXlBNBoFx3HYbrd3PTGIJ/gUhmFgv9+fja7rkGUZVkvRv+P3+09yaVWmUCg8nzhVVaEoyl8WiwX6/T4qlQpisZjtuTInE4vFnkdco9FAMBgkntRHcO99Bw+TNhgMiCfzWaQ9VJyd3TFuJhKJoFqtPqxw/TBxo9GIeHJ/k0wmIYqiayZPiYg7HA62JkYDgQBCodAPwuEw0uk0arUaJEmyfIRXVdVy/1un03GdLCLiAPg+Pz+PJjGXy0EUxZvOQu/3e7Ase/T70um0q6U9XBwA32QyQaVSwcfHB0RRvOuinFNXeK1Wo+KciqqqJ2+Tbq9TPrW46XR6UhzHcVScU6lWqyfFsSx71a4eJ0A8gFvxVavUNA2dTsdW2SwcDiMYDOLl5cUUhmHAsiyKxSJ6vR6WyyV0Xb+olmrFU4kzDAO6rv9ls9lgNBqhXC6bbtp3I4FAAMVi0XJsSVwK8GeMt16vMZ/PMZ/PMRwO0Wg0LKdlnpnBYOAccaqqYj6fQ5ZljMdjCIJguYzOi4RCIcsx7d0krVYrDIdDCIKA9/f3i3bMeBU7DVGvFrTZbDAej9Hr9cDzPEqlkmMlkdwBZJfRaGQp7SJx2+0Wg8Hg76Tno/4hhmEQDAYRiUSQzWbB8zxms9k/m+kPhwMMw8B2u4Wqqtjtdhd1StA0DbPZDM1mE29vb3h9fUUwGEQwGATDMHf5H4+1rbpa3GKxOGs5wLXEYjFUKhXHtuE1DAOTyQTlchnxePyqjSjpdPrszSe2DpJl+a63GZZlkcvlUK/XMZlMYBiG40TZYbfbYTgcguM4ZLNZpFKpk8OVRCKBarV6cSHA1kFWHXfOJZVKoV6vYzweu1bSJUK73S7G4/FNeqVYHrBer6+S5Pf7kclk0Gq1MJlMHHnbcyOWB/T7/YuE5XI5fH5+euKKcqQ4s2XcvymVSnd9KUO73UY+n3/o2g6nYnmAoiiWwjiOu3vXnd+dzf1+vyuaXhMTB/y56sLh8I/EhUIh1Gq1hyy02Ww2J0+ae3RvFQQBxWIRrVbLsSfGWQcvl0vMZrOHr4oqFoumV/wtO//sdrsfJ2kikThrYOxIcSSo1WqWt+pbdk7Qdf3oYLpYLGK1WjlGIPEATrFarWDV5Prrln04HG6a0Pf395Pf55SFRsQD+I2u67DzQqMv7nEbs+pdybKs5XyZp8RJkmS7m1A8Hj/ZKe8W2Cmgp1Ip29X8pxV3zouMHnG7EgTBdjyVSuXh8ogLUxQFuVzOVoJSqdRDV2eds56l2+0+VB5Rab1ez9asQzKZJPKbYvUugu88urU9EWH7/R5mT27frzDSzT7t3sIfvYmESDLa7bbp4z3HcRe98OFeWJ1kb29vD4+VSCIEQfjx9BiJRMBxnKNXFx+r3jAMQ6wsRiwRiqJgPp+7qsq/3W4hyzIkSSLeyp54MihUnKcgHgCFivMUxAOgUHGegngAFCrOUxAPgELFeQriAVCoOE9BPAAKFecpiAdAoeI8BfEAKJfxP70xQMZMH9Y2AAAAAElFTkSuQmCC;" vertex="1" parent="1">
          <mxGeometry x="442" y="295" width="82" height="82" as="geometry" />
        </mxCell>
        <mxCell id="rAIf4p364bo-RodgEZzl-25" value="&lt;font style=&quot;font-size: 60px&quot;&gt;已&lt;/font&gt;" style="rounded=1;whiteSpace=wrap;html=1;" vertex="1" parent="1">
          <mxGeometry x="70" y="110" width="60" height="60" as="geometry" />
        </mxCell>
        <mxCell id="rAIf4p364bo-RodgEZzl-26" value="&lt;font style=&quot;font-size: 60px&quot;&gt;矢&lt;/font&gt;" style="rounded=1;whiteSpace=wrap;html=1;" vertex="1" parent="1">
          <mxGeometry x="70" y="500" width="60" height="60" as="geometry" />
        </mxCell>
        <mxCell id="rAIf4p364bo-RodgEZzl-45" style="edgeStyle=orthogonalEdgeStyle;rounded=0;orthogonalLoop=1;jettySize=auto;html=1;entryX=0;entryY=0.5;entryDx=0;entryDy=0;" edge="1" parent="1" source="rAIf4p364bo-RodgEZzl-4" target="rAIf4p364bo-RodgEZzl-7">
          <mxGeometry relative="1" as="geometry" />
        </mxCell>
        <mxCell id="rAIf4p364bo-RodgEZzl-4" value="战国：郭‧老甲‧2" style="shape=image;imageAspect=0;aspect=fixed;verticalLabelPosition=bottom;verticalAlign=top;image=data:image/png,iVBORw0KGgoAAAANSUhEUgAAAG4AAABuCAYAAADGWyb7AAAACXBIWXMAAC4jAAAuIwF4pT92AAAVrUlEQVR4nOyde1SN6RfHd/er7iW6N0UpJV0kGdKUMUY0ZrCYclkWSrWGWvOji7tFFCFjxExmNNOoMI1MahEmGmphCGVSKp3qdKHb6X76/v6Y1VnVOafLKZ2oP77LH7zP83g+Zz/v3vvd734JAI3p/ZPQFzCmMXCjSkJfwJjGwI0qCX0BQyEWi0XHjh3DunXrcPPmTQh7PWPg+gktJCQEGhoaMDY2Rlxc3Bi490FhYWHQ0dEBEUFERARHjhwZAzfSdffuXcydOxciIiIgIhARwsPDx8CNZLFYLPrmm2+gqKjIgTYG7j3QH3/8AWtr627WNgZuhKu4uJi++OILSEhIdINGRAgJCUFtba3Q1zgGjod2796N8ePHc0EjIvj4+OD169dCX+MYuB5KSkqCra0tREVFeYLz8vJCUVGR0Nc5Bq6LiouLyd3dHVJSUjyhjYEbgWKxWLRjxw5oamryhTaU4Nrb26moqIhOnz6N1atX45NPPoGHhwd27dqFly9fCn0/hL6A/uqnn36Cubk5xMTE+EKbMmUKfv31VzQ3Nw9qLiaTSREREXBwcIC2tjbk5eUhLi4OOTk5aGhowM3NDfX19WPg+lJMTAxsbW0hKSnZK7SoqChUV1cLPE9zczNlZGRg1apV0NLS4vsjUVZWFnrYIXQoIwVadXU1nTt3Dvb29pCXl+/1OBYVFYWZmRmYTOYYOF66efMmZs+e3Ss0MzMzREVFoaqqSuB5ioqKaPfu3fjoo4/4eqs9JS8vj1OnTmEMXA/dv38fn332GWRlZXlunI6ODpYvX464uDiBobW1tdHDhw+xYcMG6Ojo8Azo+UlcXByOjo5j4HpCc3Nzg5ycHNeGSUlJYdWqVYiPj8fTp09JUCehuLiYjh8/jnnz5kFZWRkaGhowMDDoNzgigqqqKrKysoQCT+iQeiozMxOLFy/maWkKCgrYtGkTsrKy0NTUJND41dXVFB8fj2XLlsHAwIDjgMjKykJNTY3z47CyssLChQt7hSkjI4OwsLAxcNnZ2XB3d+cJTUNDAyEhIcjJyaGWlpYBj81isSg9PR1btmyBhYUFzyBeSkoK06dPx/79+5GWloasrCz88ssvmDdvHk9wEhISWLly5egGx2AwaN26dTw9Oh0dHezduxdFRUXEZrMHPPa///5LYWFhcHZ2hoqKCl8X/+uvv0ZaWlq3e2ZpaSl5eXnxvEZERARGRkajFxyDwSBfX1+oqKhwPaZxcnJCVFQUGAzGgKGxWCxKSUmBp6cn9PT0+MZlurq6CAoKwuPHj7kg9AaOiDBu3LjRCY7BYJCfnx+XJSgoKGDt2rVITU0VKEtRVlZGZ8+exZw5c/h6pmJiYjAxMUFoaCiKi4t5jlNcXEwrV64cA9dVjY2NtGXLFigrK3PFZrt27UJOTg61trYOeNz8/Hzav38/pkyZwtfKxMTEYGVlhTNnzqC0tJTvWLm5uWRlZcVzDFFRUVhaWo4ucI2NjRQREcFlafPnz8f58+dRUVEh0NGYnp4OPz8/6Ovr87USWVlZzJkzBzExMaipqel1vIsXL/LNpEhLSyMwMHB0gfv555+hr6/fLVOhra2NpKQkNDY28rympaWFGAwGFRQUcFReXk6vXr2iGzdu4MCBA3BxceHrgHQebYsWLcLVq1fBYrF6XWNBQQG5u7vzHUtDQwNPnjwZPeAKCwtp+vTpXOml1atXo6ysjO91LS0tlJSUhK1bt2LNmjVYs2YNvL29sXbtWsydO5cTh/GTmpoaPDw8cPv2bfQVUlRVVVF4eDhfa+tMBAjrhy+USQ8cOMAVR40bNw6JiYl8ra1TmZmZWLFiBVd1V1/S0tKCj48PHjx40Odm19fXU0JCAiZPnsz3/jh16lTcu3dv9ICrqamhKVOmcLn9bm5uvVpbV925cwdbt26FlZUVX4+xqwwMDBAYGIicnJw+x66vr6ekpCS+QTcRQV1dHcePHxcaNKGAu3HjBle2X09PD1euXBlQGqusrIwSEhLg7++PWbNmQUFBgadlWFhYIDw8HIWFhX2OWVtbS5cvX4azszNfaNLS0lixYgXevHkjNGhCAfe///0P4uLinI2QlJTEnj17BC6pq6+vp5SUFPj6+sLY2Jhz35SUlISdnR1+/PFHvH37ts9xKisrKTo6GrNnz+YLrfOHcOfOHQgTmlDAOTg4dDsm7ezsBE5ldVV5eTmdOnUKzs7O0NPTg6urKy5cuNAntNbWVnr58iUdOnQIpqamfKGJiopCR0cHkZGRQoc27ODq6+up55EWGRnZp1veX7W0tFB6ejoiIiJw69atPj3HN2/eUGpqKnx8fHr1SEVERKCmpoZvv/22T+fpgwSXnZ3Nlcl49uwZtbe3D9sa2tvbqaqqiu7du4cjR47AwcGh13I/ERERqKqqwtvbGyUlJUIHJhRwly9f5gJXXl4+LHO3trZScXExpaamIjQ0FM7Ozhg3blyv3mgnNC8vrxEFbdjBHTp0iCvoftcWV1NTQ9nZ2fj999/h7+8PMzOzXmtYeh6PmzZtGpEl7cM62a5du7jADeU9rlNNTU1UWFhId+7cwcmTJ+Hu7o4JEyb0O1gXExODlpYWNm7cOCKhjQhwc+bMwa1bt8Bisaijo0Pgsdvb26myspIePXqEuLg4+Pj4wMTEpF/W1TNOs7S0xM6dO0cstGEHd/ToUZ7lb7a2toiNjcWLFy+ovr6eZ2hQX19PTCaTioqKKDs7GxkZGbh16xbS0tKQlpaG5ORkhIaGwtHRkWeRET9JSEhAXV0dxsbGsLGxwbJlyxAfHz/kp8B7DS4zM5OvBycrK4uvvvoK0dHRuHv3Lh4/foxHjx4hIyMD6enpiI6Oxu7du+Hl5YW5c+dCU1OzWyA/EElISEBTUxOWlpZYuHAhgoODkZCQgLy8PKEDGZHg6urqyMjIiCtP2VNqamqYOnUqTExMIC0tLRAcfsegrq4unJ2dERoaiufPnwsdwHsBDgCFhIT0GjcNtURERCAnJwddXV24ubnh/Pnz/U5mj2QN+4S1tbU0Y8aMAVUNC2pd48ePh5mZGTw8PJCYmNivnOX7IqFMmpOTQ3Z2du/M8qSkpODi4oLTp09z3bfYbDY1NzdTbW0tVVRUUGlpKRUXF3NUUlJCb968IUELbj9ocJ3wXF1doaamNuTWZ2tri6SkJHTO1dbWRrW1tcRgMCg7Oxt//vknjh07Bm9vbyxduhQzZszgyNXVFcHBwbh69SqqqqoGnfz+4MAB/x2b3333HZycnKClpQUVFRUoKChAXl4ekpKSfTox/OTo6IhLly6hoqKCmEwmZWZmYt++fbCzs+u3s6OkpIQNGzagsLBwRMIT+gI6lZubSxcvXkRERAR27twJNzc36OrqCmyNGhoacHJywqxZswZc5tApGRkZuLm54fXr1yMOntAX0JsKCgpo9uzZvb4+/K4lLS2Nzz//HKWlpYPK7IwacM3NzRQcHAx1dXWhQesKb+HChSgvLx8x8IS+AF5qa2ujoKAgqKqqvjMYIiIi3dTXv5eSksKCBQtQWVk5IuAJfQFd1dHRQWw2m4KCgnotahUEkqioKEeKioqwsLCAk5MTnJycMHXqVIiKivYJUFJSEvPnzx8R8aDQF9BVtbW1tG3btiGDpqioiEWLFiElJQXt7e3UU2w2m9hsNjU1NdHTp09p+/btfFtNdUpWVhbr16+HsPdK6LC6QluyZAnPzL6cnBwUFRX7nVSWlpbGxo0bkZubSy0tLX0+qO209NbWVnr+/Dl5eHj0Or6ysjLOnj0rVHhCB9YVWs/iVjk5OaxZswb3799Hbm4u3b9/HyUlJVRXV0d1dXVUXl5OFy5cwMcff9ztuZu+vj7OnTsHQVx4NptNhYWF5O/vzxecqKgoTExM+L6aNWrARUZGcjkicnJyOHPmDJhMJrW1tRGbzeb82XldR0cHtbS0UHl5Ofn6+nLq/GVlZQfVQKYTXkBAQK9Hpr+/v8BzvPfgamtrycrKiitW+/7771FdXd2vwLejo4PCwsIwceJEzvV+fn6DaiDT3t5OOTk5vb6to6mpKbSn5EIHFxoaypXZCAgIQElJyYCyFUeOHIGWlhZnjEWLFiEzMxODWVtbWxtlZWXBwsKC77107969g5rjvQTHYDDIwMCgmxu+adMm5OfnD7jyqye4SZMmISYmZtCb2tTURNeuXYOhoSEXODExMdja2o4+cCEhId0cEhcXFzx9+pTa2toGPFZPcBISEti3b9+gN7Wjo4NqamrozJkzPD1eJSWlfr0F9MGAYzAYpKenx7E2Q0ND3LhxQ+CWhT3BERHWr18/JPcgNptNlZWVdPLkSZ7HpTA+UiE0cIcPH4aMjAzHg4yNjUVdXZ3A6SRe4FxdXZGenj4km8pms6moqIirA4OkpCRCQkJGD7hp06ZxSvU2btyIsrKyQeUAeYGbNGkSzp8/P2Sb2tLSQtevX+e6zy1ZsmR0gEtPT+fU7Zubm+Px48cQ5L7WqaamJgoMDISSklK3TZWSkkJwcPCgO8Z2qqOjg16/fk12dnbdgnEHB4fRAc7X15fzgDQiIgINDQ0Cj/XkyRP4+/vD0NCQ53M7GxsbREVFcV7aYLFYlJ+fT7dv30ZsbCzOnz+P1NRU5OXlUU5ODt27dw+JiYm4ePEiz8xITU0NBQcHd5tDTU3twwdXX19POjo6EBERgb6+PvLy8rrFaw8fPsRvv/2G06dPIygoCAEBARyFh4cjOjoaUVFR2LlzJzw8PDBz5kyoqqryzexLS0vDwMAAs2bNgouLC5ycnDBz5kxYWlrC2NgYRkZGMDc3h729PWbMmAErKyuYmppi9uzZSEhI4ALS3NxMycnJ3eaQkZH58MElJydz8ore3t6oq6vr9vfbt2/HtGnTYGBgAHV1daioqHCkra0NIyMjGBoaYvz48ZCRkRG4LqUvmZiYIC0tjQsIm82mly9fUtcwZlSA27x5M+dIS05O5npr1NPTc0C1/+9C0tLSWLx4Md/nbuXl5WRubj66wOnq6oLov451DAaDy5Pcs2fPO33y3R9oH3/8MRITE/nCqKioIAcHh9ED7tmzZ9RpbV9++SXPrnj//PMPli1b1mcn8qGWmJgYDAwMEBAQgPT09F67QDCZTJo2bRqI/vMqp02b9mGDO3fuHCd2i4+P5/lyfUtLCz148AB+fn7DYnmysrKwsrKCr68vEhIS+uyH0nmP6ww9xMTE4Orq+mGD279/P0RFRWFvb99nxVReXh4dPXoU1tbWQ1aqLi4uDnV1dUyfPh1ubm7w8/NDZGQkUlJSUFBQ0K8Wi42NjRQXF8cZU0JCAj4+Ph82uDNnzkBXVxeXLl1Cfzbp7du3dO3aNaxbtw4TJ07s9zcBOqWvr4+lS5fC29sbwcHBOH78OGJiYpCcnIysrCwUFhbSQNtfMJlMWrhwYbd7YnR09IcNLjs7Gz/88AMaGhoGlN569uwZxcTEYNu2bfDx8eFowYIFfPuTaGtrIygoCA8fPsSrV6+oqqpKoKcOXcVisejChQuc+6+YmBjs7OyQn58/rPs47OCampqoqalJ4JxkRUUFFRUVcXTixAm+He7s7Oxw5coVDNXaWSwWXb58Gfb29hynxMjICPHx8UM2x4gFN9QKDw/nfEq6p/T09BAVFdWvI7kv1dTUUFRUFLqGAKqqqjh8+LDA3z8YteAaGhpo/fr1fN++ERcXx/Lly3l2Nu+v2Gw2MRgMOnToUDfLlpWVhY+Pz7A11/mgwGVkZMDR0ZEnsM5YUVNTEzt27Oi1WXZf4J48eQIbGxsQ/VcRraSkhFWrVuHFixdC/f8LHYAgamhooO3bt3O9EDJhwgQsWrQINjY2HHimpqY4evSowPCYTCYdOHAAK1asgKenJw4ePDgoKx7V4P766y+Ok9DV0jw9PXH37l3ExsZi3rx5nHqWwcBjs9lUW1tLeXl51J9mpWPg+KiqqornByZMTU0RFxeH1tZWam1tpatXr2Lu3LkcyzMxMUFERITAljfSJPQFDFTJycng9QGHzZs349WrV5x/x2KxKCYmBtbW1lzwxtplDLNaW1spICCAK4epoKDA0/Wvqamhs2fPousjGBMTExw7duy9hyf0BQxEBQUFNGfOHC5rs7e3x/Xr18HrmsrKSjp48GC37nmTJ0/GsWPHhOrOjypwcXFxPPsmb9y4sddvc+fm5tLmzZu7lbpPnjwZx48fF+oHakcNuMDAQK4QQEZGBidOnOizV/Lff/8Nd3d3Ti0n0X/leydOnHgv4Ql9Af0Vk8mkTz/9lKuSy9raGqmpqejr+tbW1v+3d/4grXtRHL/BJK1DAw6KQnFoKkoRtaioSG3QLtVVUKGbiKARnMRByKSIujkGFFxcRFeHqENFS6BEtAgiIkEt/qEQQVDS4Pc3/R4E/f2ezz6avtcOn/memw+Em3Ny7iG7u7sQBMFWZairq8Pq6ioeHx8d3+NfKW5tbQ08z9ukud1uzMzMfLnB0DRNsrW1hcbGRps8v9+PlZUVnJ2dfXv+QUncJ1xfX5P+/n5b16nb7UZfXx8URfmlRLJhGGR9fR2BQMAmj+M4RKNRyLIMVVWh6zopZImOB/AzdF0noijaPgE8Hg8ikQj29va+lf03DINsbGygvb39Q28ey7IIBAIQRRGyLCMejyOZTOLk5OQHmqYhnU6Tq6srcn9/n3Od768Td3NzQ0RRtGVJOI7D0NAQEolETiUb0zSJqqoYGxuDz+eDx+P5tMLucrlQX1+PYDCIYDCIlpYWNDU1YXZ2FiMjI5AkCfv7+0ilUiSfWRnH5fwXd3d3ZHJy0jaGk2VZxGKx33qzayaTITs7OxgdHUVnZyd4nkdlZeUv/efCcRza2tqwuLiIohVnWRa5vb0lExMTtiYOlmURCoVybg/+PwzDIIqiYGFhAQMDA2hoaIDX6/3SVR0URWF8fLw4xb29vZHz83MSi8VsUzgYhkF3dzfi8fhvqWh/hWw2S9LpNNne3sb09DR6enrg8/lQXV2NiooKlJeX22RSFAVBEIpP3PPzM1EUBeFw2PaaYhgGXV1dODw8zKkVK1dM0ySXl5dkc3MTkiRheHgYoVAIfr8fPM/D6/VicHCweMRls1ny8PBAlpaWUFtbazsg0DSNjo4OHB0dOSrtZ1iWRY6Pj5FKpfK2pqMbfnl5IclkEtFo9MNh4N8bDRKJREFLcwpHFrUsixiGQZaXl1FTU/OhVYqmabS2tkJV1ZK0QhD3/v5OXl9fyenpKSKRyKcnNZfLhXA4DE3TStIKRVwmkyFzc3MfhFEUBYZhUFVVBUmS8PT05PiDKXTyutjBwQFomv5x8WdZWRlomkZzczPm5+eh63pepzf+yeR1MU3T0NvbC0EQMDU1BVmWcXFx4Uiu70/H8QBKlMQVFY4HUKIkrqhwPIAS3+MfuYCeso8aKL8AAAAASUVORK5CYII=;" vertex="1" parent="1">
          <mxGeometry x="261.85" y="390" width="82" height="82" as="geometry" />
        </mxCell>
      </root>
    </mxGraphModel>
  </diagram>
</mxfile>
